<?xml version="1.0" standalone="no"?>
<!DOCTYPE svg PUBLIC "-//W3C//DTD SVG 20010904//EN"
 "http://www.w3.org/TR/2001/REC-SVG-20010904/DTD/svg10.dtd">
<svg version="1.0" xmlns="http://www.w3.org/2000/svg"
 width="1024.000000pt" height="1024.000000pt" viewBox="0 0 1024.000000 1024.000000"
 preserveAspectRatio="xMidYMid meet">
<metadata>
Created by potrace 1.11, written by Peter Selinger 2001-2013
</metadata>
<g transform="translate(0.000000,1024.000000) scale(0.100000,-0.100000)"
fill="#000000" stroke="none">
<path d="M0 5120 l0 -5120 5120 0 5120 0 0 5120 0 5120 -5120 0 -5120 0 0
-5120z m7462 2821 c168 -15 268 -62 308 -146 25 -52 24 -124 -2 -185 -16 -37
-350 -516 -971 -1392 -201 -284 -375 -535 -386 -557 -22 -42 -27 -96 -12 -120
10 -16 103 -30 202 -30 31 -1 87 -10 124 -22 88 -27 164 -98 185 -174 34 -117
5 -253 -83 -399 -66 -108 -1763 -2465 -1810 -2514 -58 -60 -127 -89 -233 -102
-117 -13 -1896 -13 -2022 0 -52 6 -115 19 -143 31 -62 27 -122 94 -146 162
-17 50 -18 171 -18 2637 l0 2585 23 57 c27 68 90 128 154 148 24 7 77 16 118
20 111 10 4599 11 4712 1z"/>
</g>
</svg>
