<?xml version="1.0" encoding="utf-8"?>
<!-- Generator: Adobe Illustrator 20.1.0, SVG Export Plug-In . SVG Version: 6.00 Build 0)  -->
<!DOCTYPE svg PUBLIC "-//W3C//DTD SVG 1.1//EN" "http://www.w3.org/Graphics/SVG/1.1/DTD/svg11.dtd">
<svg version="1.1" id="Ebene_1" xmlns="http://www.w3.org/2000/svg" xmlns:xlink="http://www.w3.org/1999/xlink" x="0px" y="0px"
	 viewBox="0 0 1080 1920" style="enable-background:new 0 0 1080 1920;" xml:space="preserve">
<style type="text/css">
	.st0{fill:#FFFFFF;}
	.st1{fill:#EE7F7D;}
</style>
<path class="st0" d="M1536.8,1809.6c95.5,113.2,164.7,76.8,212.1-26.5c52.9-99.7,285.9-532.1,285.9-532.1V753
	c0,0-1215.7,187.1-1232.7,189.3c-43.2,5.1-107.1,41-39.8,109.8C840.9,1131.8,1523.3,1796.5,1536.8,1809.6"/>
<path class="st1" d="M-727.1,1453.2l1054.4,239.1c45.9,10.4,56.7,33.1,20.9,64.7c0,0-316.8,270.1-352.6,301.7l-228.3,196.4
	c-16.6,14.7-38.8,20.4-55.5,16.7l-604-136.7c-45.9-10.4-73.5-45.6-63.1-91.5l121.2-535.7C-823.6,1462.1-773,1442.9-727.1,1453.2"/>
<path class="st0" d="M-755.7,397.4c0-310.7,251.9-562.6,562.6-562.6S369.6,86.6,369.6,397.4c0,310.7-251.9,562.6-562.6,562.6
	S-755.7,708.1-755.7,397.4"/>
</svg>
