<?xml version="1.0" encoding="utf-8"?>
<!-- Generator: Adobe Illustrator 20.1.0, SVG Export Plug-In . SVG Version: 6.00 Build 0)  -->
<!DOCTYPE svg PUBLIC "-//W3C//DTD SVG 1.1//EN" "http://www.w3.org/Graphics/SVG/1.1/DTD/svg11.dtd">
<svg version="1.1" id="funk" xmlns="http://www.w3.org/2000/svg" xmlns:xlink="http://www.w3.org/1999/xlink" x="0px" y="0px"
	 viewBox="0 0 202.077 42.052" enable-background="new 0 0 202.077 42.052" xml:space="preserve">
<g id="funk_1_">
	<path fill="#FFFFFF" d="M92.137,0H56.713c-1.632,0-3.075,0.392-3.075,2.756v18.774c0,11.464,8.814,20.522,20.434,20.522
		c11.62,0,20.826-9.886,20.826-21.242V2.756C94.898,0.392,93.946,0,92.137,0"/>
	<path fill="#FFFFFF" d="M109.939,42h35.424c1.632,0,3.075-0.34,3.075-2.704V20.522C148.438,9.057,139.624,0,128.004,0
		s-20.826,9.886-20.826,21.242v18.054C107.178,41.66,108.129,42,109.939,42"/>
	<path fill="#FFFFFF" d="M201.748,39.326c-0.2-0.413-9.665-13.425-12.404-17.188c-0.464-0.637-0.463-1.517,0-2.191
		c2.736-3.987,12.122-16.636,12.381-17.016c0.887-1.298,0.088-2.77-2.305-2.77h-35.654c-1.602,0-2.939,0.335-2.939,2.719v36.577
		c-0.082,2.364,1.527,2.679,3.085,2.679h35.535C201.793,42.136,202.417,40.708,201.748,39.326"/>
	<path fill="#FFFFFF" d="M38.411,0H2.982C1.296,0,0,0.275,0,2.759v36.482C0,41.588,1.342,42,2.982,42h14.612
		c1.108,0,1.903-0.207,2.622-1.066h0.003L33.61,23.104c0,0,0.954-1.269,1.107-2.21c0.352-2.16-1.177-2.823-2.875-2.812l-0.553-0.003
		c-1.409-0.008-0.305-1.488-0.299-1.497c0,0,9.911-13.37,10.206-13.879C41.972,1.364,41.328,0,38.411,0"/>
</g>
</svg>
